# xmcd
#
# Track frame offsets:
#	150
#	20590
#	34835
#	47727
#	64956
#	79585
#	95639
#	111808
#	132252
#	148801
#	166514
#
# Disc length: 2482 seconds
#
# Revision: 1
# Processed by: cddbd v1.5.2PL0 Copyright (c) Steve Scherf et al.
# Submitted via: audiograbber 1.82.01
#
DISCID=9209b00b
DTITLE=Tim Murphy - Ain't No Shame
DYEAR=2005
DGENRE=Country
TTITLE0=Money Ain't Everything
TTITLE1=Burn Me Down
TTITLE2=All The Silence I Can Stand
TTITLE3=Over You
TTITLE4=Wild Wild West
TTITLE5=Bottom Of The Fifth
TTITLE6=American Heroes
TTITLE7=Time To Do Nothin'
TTITLE8=I Don't Know Where She Is
TTITLE9=Walk On By
TTITLE10=Ain't No Shame
EXTD=
EXTT0=
EXTT1=
EXTT2=
EXTT3=
EXTT4=
EXTT5=
EXTT6=
EXTT7=
EXTT8=
EXTT9=
EXTT10=
PLAYORDER=
